<?xml version="1.0" encoding="UTF-8" standalone="no"?>
<svg
   xmlns:dc="http://purl.org/dc/elements/1.1/"
   xmlns:cc="http://creativecommons.org/ns#"
   xmlns:rdf="http://www.w3.org/1999/02/22-rdf-syntax-ns#"
   xmlns:svg="http://www.w3.org/2000/svg"
   xmlns="http://www.w3.org/2000/svg"
   xmlns:sodipodi="http://sodipodi.sourceforge.net/DTD/sodipodi-0.dtd"
   xmlns:inkscape="http://www.inkscape.org/namespaces/inkscape"
   version="1.1"
   id="Capa_1"
   x="0px"
   y="0px"
   width="2775.9px"
   height="385.4px"
   viewBox="0 0 2775.9 385.4"
   style="enable-background:new 0 0 2775.9 385.4;"
   xml:space="preserve"
   sodipodi:docname="ROBOTNIK-LOGO-ROJO.svg"
   inkscape:version="1.0.2 (1.0.2+r75+1)"><metadata
   id="metadata35"><rdf:RDF><cc:Work
       rdf:about=""><dc:format>image/svg+xml</dc:format><dc:type
         rdf:resource="http://purl.org/dc/dcmitype/StillImage" /><dc:title></dc:title></cc:Work></rdf:RDF></metadata><defs
   id="defs33" /><sodipodi:namedview
   pagecolor="#7d7d7d"
   bordercolor="#666666"
   borderopacity="1"
   objecttolerance="10"
   gridtolerance="10"
   guidetolerance="10"
   inkscape:pageopacity="0"
   inkscape:pageshadow="2"
   inkscape:window-width="1848"
   inkscape:window-height="1016"
   id="namedview31"
   showgrid="false"
   inkscape:zoom="0.3349708"
   inkscape:cx="1217.3477"
   inkscape:cy="50.732246"
   inkscape:window-x="72"
   inkscape:window-y="27"
   inkscape:window-maximized="1"
   inkscape:current-layer="Capa_1" />
<style
   type="text/css"
   id="style2">
	.st0{fill:#FFFFFF;}
	.st1{fill:#D0043C;}
</style>
<g
   id="g28"
   style="fill:#d0043c;fill-opacity:1">
	<path
   class="st0"
   d="M803.8,117.9C803.8,39,761.4,5,672.3,5H477.4v375.7h79.1V232.9h93.3l82.8,147.7h89.1l-93.8-157.2   C776.6,213,803.8,175.8,803.8,117.9z M653.5,166.4h-96.9V72h96.9c47.2,0,70.2,8.3,70.2,46.9C723.7,157,700.6,166.4,653.5,166.4z"
   id="path4"
   style="fill:#d0043c;fill-opacity:1" />
	<path
   class="st0"
   d="M991.4,99.8c-90.1,0-146.7,57.1-146.7,143c0,85.4,56.6,142.5,146.7,142.5c90.6,0,146.2-57.1,146.2-142.5   C1137.5,156.9,1080.9,99.8,991.4,99.8z M990.8,326.2c-43,0-69.7-29.9-69.7-83.3s27.2-83.3,69.7-83.3c43.5,0,70.2,29.9,70.2,83.3   S1033.8,326.2,990.8,326.2z"
   id="path6"
   style="fill:#d0043c;fill-opacity:1" />
	<path
   class="st0"
   d="M1318.1,104.5h-62.9V5h-72.8v375.7h140.4c85.4,0,134.6-53.4,134.6-141.5c0-36.7-10-67.1-29.9-92.2   C1401.4,114,1367.9,104.5,1318.1,104.5z M1305.6,321.4h-50.3V164.3h44.5c56.6,0,81.2,20.4,81.2,80.2   C1381,302.1,1359.5,321.4,1305.6,321.4z"
   id="path8"
   style="fill:#d0043c;fill-opacity:1" />
	<path
   class="st0"
   d="M1630.3,99.8c-90.1,0-146.7,57.1-146.7,143c0,85.4,56.6,142.5,146.7,142.5c90.6,0,146.2-57.1,146.2-142.5   C1776.5,156.9,1719.9,99.8,1630.3,99.8z M1629.8,326.2c-43,0-69.7-29.9-69.7-83.3s27.2-83.3,69.7-83.3c43.5,0,70.2,29.9,70.2,83.3   S1672.7,326.2,1629.8,326.2z"
   id="path10"
   style="fill:#d0043c;fill-opacity:1" />
	<path
   class="st0"
   d="M1917.8,5H1845v99.5h-51.3v55h51.3v134.7c0,56.6,30.4,86.4,83.3,86.4h66.5v-55H1965   c-37.2,0-47.2-16.2-47.2-54.5V159.5h77v-55h-77V5z"
   id="path12"
   style="fill:#d0043c;fill-opacity:1" />
	<path
   class="st0"
   d="M2175.1,104.5h-137.3v276.1h72.8V165.3h58.7c41.4,0,48.2,11,48.2,49.2v166.1h72.8v-175   C2290.3,132.3,2256.8,104.5,2175.1,104.5z"
   id="path14"
   style="fill:#d0043c;fill-opacity:1" />
	<rect
   x="2352.1"
   y="105"
   class="st0"
   width="76.5"
   height="275.6"
   id="rect16"
   style="fill:#d0043c;fill-opacity:1" />
	<rect
   x="2352.1"
   y="5"
   class="st0"
   width="76.5"
   height="68.6"
   id="rect18"
   style="fill:#d0043c;fill-opacity:1" />
	<polygon
   class="st0"
   points="2775.9,104.9 2683.7,104.9 2566.4,237.3 2566.4,5 2493.6,5 2493.6,380.6 2566.4,380.6 2566.4,246.7    2678,380.6 2775.9,380.6 2648.1,239.9  "
   id="polygon20"
   style="fill:#d0043c;fill-opacity:1" />
	<ellipse
   class="st1"
   cx="296.6"
   cy="88.8"
   rx="88.8"
   ry="88.8"
   id="ellipse22"
   style="fill:#d0043c;fill-opacity:1" />
	<ellipse
   class="st1"
   cx="296.6"
   cy="296.6"
   rx="88.8"
   ry="88.8"
   id="ellipse24"
   style="fill:#d0043c;fill-opacity:1" />
	<ellipse
   class="st1"
   cx="88.8"
   cy="88.8"
   rx="88.8"
   ry="88.8"
   id="ellipse26"
   style="fill:#d0043c;fill-opacity:1" />
</g>
</svg>
