<?xml version="1.0" encoding="UTF-8" standalone="no"?>
<svg
   xmlns:dc="http://purl.org/dc/elements/1.1/"
   xmlns:cc="http://creativecommons.org/ns#"
   xmlns:rdf="http://www.w3.org/1999/02/22-rdf-syntax-ns#"
   xmlns:svg="http://www.w3.org/2000/svg"
   xmlns="http://www.w3.org/2000/svg"
   xmlns:sodipodi="http://sodipodi.sourceforge.net/DTD/sodipodi-0.dtd"
   xmlns:inkscape="http://www.inkscape.org/namespaces/inkscape"
   version="1.0"
   width="500.000000pt"
   height="164.000000pt"
   viewBox="0 0 500.000000 164.000000"
   preserveAspectRatio="xMidYMid meet"
   id="svg36"
   sodipodi:docname="The-Construct-logo-20-500x164-1.svg"
   inkscape:version="1.0.2 (1.0.2+r75+1)">
  <metadata
     id="metadata42">
    <rdf:RDF>
      <cc:Work
         rdf:about="">
        <dc:format>image/svg+xml</dc:format>
        <dc:type
           rdf:resource="http://purl.org/dc/dcmitype/StillImage" />
        <dc:title />
      </cc:Work>
    </rdf:RDF>
  </metadata>
  <defs
     id="defs40" />
  <sodipodi:namedview
     pagecolor="#ffffff"
     bordercolor="#666666"
     borderopacity="1"
     objecttolerance="10"
     gridtolerance="10"
     guidetolerance="10"
     inkscape:pageopacity="0"
     inkscape:pageshadow="2"
     inkscape:window-width="1848"
     inkscape:window-height="1016"
     id="namedview38"
     showgrid="false"
     inkscape:zoom="0.98624998"
     inkscape:cx="506.55918"
     inkscape:cy="226.85695"
     inkscape:window-x="72"
     inkscape:window-y="27"
     inkscape:window-maximized="1"
     inkscape:current-layer="g34"
     inkscape:document-rotation="0" />
  <g
     transform="translate(0.000000,164.000000) scale(0.100000,-0.100000)"
     fill="#000000"
     stroke="none"
     id="g34"
     style="fill:#5a53b1;fill-opacity:1">
    <path
       d="M870 1557 c-30 -17 -223 -129 -430 -247 -392 -226 -420 -246 -420 -310 0 -18 88 -182 243 -451 134 -233 250 -434 257 -447 21 -31 76 -55 112 -48 16 3 150 76 296 162 147 86 310 181 362 212 247 144 260 154 260 223 0 36 -14 64 -138 279 -52 91 -153 266 -224 390 -70 124 -140 235 -154 248 -38 33 -96 29 -164 -11z m201 -239 c6 -13 23 -35 37 -50 18 -19 22 -31 15 -40 -8 -11 -27 -130 -36 -232 -2 -20 45 -44 90 -45 18 -1 22 -7 21 -33 -1 -18 0 -49 0 -68 2 -37 -5 -170 -12 -230 -2 -19 -11 -64 -19 -100 -9 -36 -15 -74 -14 -85 2 -15 -5 -21 -25 -23 l-28 -3 -1 68 c-1 85 -10 117 -32 121 -14 3 -17 -2 -15 -24 3 -25 0 -28 -27 -28 -19 0 -30 5 -31 15 -1 7 -2 20 -3 27 -1 9 -45 12 -186 12 l-185 0 0 -31 c0 -24 -3 -30 -16 -25 -9 3 -22 6 -30 6 -8 0 -14 10 -14 25 0 32 -27 33 -39 1 -12 -29 -17 -129 -8 -143 9 -15 -3 -23 -29 -19 -13 2 -19 12 -21 32 -2 43 -20 128 -30 147 -7 12 -18 191 -17 276 l1 74 64 16 64 17 -3 44 c-4 65 -23 182 -33 202 -7 12 -2 24 16 44 13 14 27 35 30 45 8 23 17 24 56 4 16 -9 34 -13 39 -10 34 21 216 23 292 4 42 -11 49 -10 75 9 36 27 40 27 54 0z"
       id="path2"
       style="fill:#5a53b1;fill-opacity:1" />
    <path
       d="M1570 1255 c0 -22 4 -25 40 -25 l39 0 3 -122 c3 -119 4 -123 26 -126 22 -3 22 -2 22 122 l0 126 45 0 c41 0 45 2 45 25 l0 25 -110 0 -110 0 0 -25z"
       id="path10"
       style="fill:#5a53b1;fill-opacity:1" />
    <path
       d="M1820 1130 l0 -150 25 0 c25 0 25 1 25 80 0 77 1 81 26 92 46 21 59 2 62 -91 3 -79 4 -81 27 -81 25 0 25 1 25 85 0 78 -2 88 -25 110 -28 29 -61 32 -93 9 -22 -15 -22 -15 -22 40 0 53 -1 56 -25 56 l-25 0 0 -150z"
       id="path12"
       style="fill:#5a53b1;fill-opacity:1" />
    <path
       d="M2109 1189 c-14 -5 -31 -21 -38 -35 -16 -36 -14 -106 4 -131 31 -45 165 -55 165 -13 0 15 -6 17 -37 13 -45 -6 -93 11 -93 32 0 12 14 15 70 15 l70 0 0 30 c0 78 -63 118 -141 89z m79 -41 c25 -25 13 -38 -33 -38 -30 0 -45 4 -45 13 0 19 21 37 45 37 12 0 26 -5 33 -12z"
       id="path14"
       style="fill:#5a53b1;fill-opacity:1" />
    <path
       d="M2030 883 c-114 -12 -187 -69 -210 -163 -17 -69 -7 -176 20 -229 50 -98 187 -143 340 -110 l50 11 0 40 c0 37 -2 40 -22 33 -13 -3 -57 -9 -99 -12 -64 -5 -81 -2 -117 16 -50 25 -79 68 -88 127 -24 162 93 247 274 200 l52 -13 0 39 c0 31 -4 40 -22 47 -29 10 -132 18 -178 14z"
       id="path16"
       style="fill:#5a53b1;fill-opacity:1" />
    <path
       d="M3540 618 c1 -142 4 -197 14 -210 18 -24 59 -38 112 -38 l45 0 -3 38 c-3 33 -6 37 -31 38 -16 1 -33 7 -38 15 -5 8 -9 60 -9 117 l0 102 40 0 c39 0 40 1 40 35 l0 35 -49 0 c-47 0 -50 2 -53 28 -2 22 -8 28 -35 30 l-33 3 0 -193z"
       id="path18"
       style="fill:#5a53b1;fill-opacity:1" />
    <path
       d="M4780 621 c0 -185 1 -191 23 -217 20 -23 34 -28 85 -32 l62 -4 0 40 c0 39 -1 41 -31 40 -17 -1 -35 5 -40 13 -5 8 -9 60 -9 117 l0 102 40 0 c39 0 40 1 40 34 0 34 -1 35 -47 38 -41 3 -48 6 -53 28 -4 19 -13 26 -38 28 l-32 3 0 -190z"
       id="path20"
       style="fill:#5a53b1;fill-opacity:1" />
    <path
       d="M2405 736 c-75 -28 -112 -102 -102 -202 10 -96 56 -145 148 -159 103 -15 189 38 209 128 20 96 -8 184 -70 221 -42 24 -134 30 -185 12z m132 -71 c45 -31 55 -135 19 -190 -19 -29 -77 -42 -111 -27 -62 28 -75 162 -21 209 31 27 81 30 113 8z"
       id="path22"
       style="fill:#5a53b1;fill-opacity:1" />
    <path
       d="M2750 560 l0 -191 41 3 41 3 1 129 c2 126 2 129 28 148 34 25 94 28 117 5 14 -15 18 -41 20 -152 l4 -135 39 0 39 0 0 148 c0 128 -3 151 -20 179 -33 55 -137 67 -194 22 -32 -25 -44 -24 -48 4 -2 17 -11 23 -35 25 l-33 3 0 -191z"
       id="path24"
       style="fill:#5a53b1;fill-opacity:1" />
    <path
       d="M3233 739 c-62 -18 -91 -91 -63 -163 13 -35 39 -46 128 -54 74 -7 77 -8 80 -34 4 -38 -27 -52 -97 -45 -31 3 -66 9 -78 13 -21 6 -23 3 -23 -29 0 -42 9 -46 102 -54 77 -7 148 14 173 50 19 28 19 90 0 127 -17 34 -63 50 -140 50 -53 0 -75 12 -75 42 0 29 37 41 109 35 36 -2 74 -8 84 -12 16 -7 18 -3 15 31 -3 34 -7 40 -33 45 -45 10 -146 8 -182 -2z"
       id="path26"
       style="fill:#5a53b1;fill-opacity:1" />
    <path
       d="M3772 563 l3 -188 43 -3 42 -3 0 130 0 130 28 19 c15 11 36 21 47 23 15 3 21 13 23 42 3 36 2 38 -20 32 -13 -4 -37 -16 -55 -26 l-32 -20 -3 23 c-2 19 -10 24 -41 26 l-37 3 2 -188z"
       id="path28"
       style="fill:#5a53b1;fill-opacity:1" />
    <path
       d="M4020 628 c1 -145 10 -192 44 -226 38 -39 120 -33 207 15 4 2 10 -8 13 -22 6 -22 11 -26 39 -23 l32 3 3 188 2 187 -45 0 -45 0 0 -133 0 -133 -30 -18 c-39 -22 -87 -24 -108 -2 -14 14 -18 41 -20 151 l-4 135 -44 0 -44 0 0 -122z"
       id="path30"
       style="fill:#5a53b1;fill-opacity:1" />
    <path
       d="M4555 741 c-99 -24 -146 -109 -124 -224 18 -99 76 -140 195 -140 83 0 94 5 94 43 l0 29 -72 -1 c-68 -1 -73 0 -99 30 -36 40 -45 88 -25 136 21 49 69 70 143 61 l53 -6 0 34 c0 33 -1 34 -46 41 -55 7 -78 7 -119 -3z"
       id="path32"
       style="fill:#5a53b1;fill-opacity:1" />
    <path
       style="fill:#000000;stroke-width:13.5489"
       d="M 78.063407,210.41403 C 71.948111,208.52935 70.717715,206.77953 49.348656,169.57714 24.511683,126.33729 10.187325,100.70798 5.9116776,91.859212 2.7821182,85.38235 2.6898032,85.006696 3.5331202,82.180184 5.5473907,75.429026 11.165716,71.756666 79.622282,32.445284 99.584432,20.981961 117.63177,10.733993 119.72747,9.6720221 c 5.06864,-2.5684806 11.17792,-3.1414241 15.02049,-1.4086624 4.34942,1.9613133 7.91741,7.7104793 46.05083,74.2025203 25.81504,45.01289 27.04864,47.68482 24.9506,54.04194 -1.83959,5.57401 -5.02101,7.75332 -48.76587,33.40513 -54.98223,32.24137 -71.847281,41.65977 -74.413507,41.5567 -0.68387,-0.0275 -2.711842,-0.50249 -4.506606,-1.05562 z M 67.704273,163.6512 c 0.400827,-0.29449 0.737692,-4.16234 0.763972,-8.77185 0.04873,-8.54773 0.98395,-13.53178 2.825999,-15.06054 1.500295,-1.24513 3.075359,0.19076 3.358997,3.06219 0.19804,2.00496 0.56441,2.32141 3.571203,3.08462 4.119782,1.04571 4.894577,0.44789 4.894577,-3.77655 v -3.08295 h 21.050399 c 11.57772,0 22.54729,0.20517 24.37682,0.45593 3.0543,0.41865 3.32641,0.61973 3.32641,2.45817 0,2.97915 1.78605,4.36892 5.28612,4.11323 2.92622,-0.21377 2.96295,-0.25126 3.31746,-3.38683 0.40451,-3.57778 1.34079,-4.29008 3.09345,-2.35341 1.6945,1.8724 2.64227,7.7465 2.64227,16.37641 v 7.43028 h 2.55651 c 3.72325,0 5.3301,-1.09669 5.3301,-3.63783 0,-1.18439 0.96872,-6.86314 2.15271,-12.61946 2.6308,-12.7904 3.73577,-26.66406 3.4447,-43.25081 l -0.22017,-12.546892 -4.50863,-0.892069 c -5.16047,-1.021037 -8.63391,-2.617833 -9.26353,-4.258593 -0.78574,-2.047595 2.1185,-23.249227 4.45055,-32.490004 0.35848,-1.420499 -0.24196,-2.685005 -2.89376,-6.094203 -1.84036,-2.365984 -3.80532,-5.189034 -4.3666,-6.273444 -1.33503,-2.579351 -3.16578,-2.512354 -7.20035,0.263503 -3.5513,2.443358 -3.44281,2.439044 -15.29228,0.608124 -6.64736,-1.027117 -29.509869,-0.551929 -32.721815,0.680111 -1.972234,0.75651 -2.803433,0.630765 -6.715962,-1.015993 -4.872007,-2.0506 -6.14642,-1.956919 -7.092054,0.52133 -0.342408,0.897349 -1.950737,3.39735 -3.574068,5.555557 -3.297054,4.38341 -3.372097,4.78728 -1.923151,10.350156 1.076361,4.13243 2.864989,16.031814 3.641653,24.227192 l 0.455268,4.804003 -3.817329,1.083563 c -2.099532,0.595963 -5.995111,1.619072 -8.656844,2.273576 l -4.839514,1.190004 v 10.556029 c 0,16.60204 1.287542,32.42943 3.238965,39.81568 0.937628,3.54897 2.074434,9.19507 2.526235,12.54689 0.610181,4.5268 1.193456,6.4169 2.267829,7.34889 1.516718,1.31571 3.303557,1.59518 4.51386,0.70599 z"
       id="path2732"
       transform="matrix(7.4999998,0,0,-7.4999998,0,1640)" />
    <path
       style="fill:#000000;stroke-width:13.5489"
       d="m 271.08801,168.47514 c -11.09335,-1.50544 -20.38772,-6.97615 -24.88255,-14.64599 -3.87324,-6.60919 -5.33521,-23.0491 -2.82722,-31.79222 3.27372,-11.41253 11.9852,-18.42564 25.29803,-20.36601 6.70622,-0.97744 22.26782,0.0613 25.73527,1.71784 1.83651,0.87737 2.02249,1.33284 2.21804,5.43214 0.1174,2.46096 0.007,4.47448 -0.24586,4.47448 -0.25262,0 -3.73633,-0.67699 -7.74158,-1.50443 -16.64558,-3.43876 -28.24867,0.57456 -33.3694,11.54194 -1.54951,3.31867 -1.84069,4.96544 -1.83824,10.39599 0.003,7.57279 0.92367,11.1409 4.09602,15.8815 2.69304,4.02434 8.28982,7.68373 13.44153,8.78857 3.24269,0.69544 10.80508,0.31986 22.03849,-1.09451 l 3.76407,-0.47393 v 4.65643 4.65643 l -5.55648,1.14347 c -7.36933,1.51654 -14.57636,1.94198 -20.13012,1.1883 z"
       id="path2734"
       transform="matrix(7.4999998,0,0,-7.4999998,0,1640)" />
    <path
       style="fill:#000000;stroke-width:4.79028"
       d="m 366.84068,143.96088 v -25.37082 l 0.95057,0.13645 c 0.52281,0.075 1.74905,0.20734 2.72497,0.29399 3.65654,0.32465 4.65474,1.01923 5.16071,3.59101 0.39545,2.01004 0.84846,2.61373 1.96135,2.61373 1.06337,0 2.23959,-0.57439 4.33182,-2.11538 4.09189,-3.01379 8.92613,-4.29199 14.04113,-3.71255 6.02411,0.68242 10.4515,3.3953 12.50345,7.66148 1.68965,3.51292 1.73131,4.0574 1.85263,24.21208 l 0.10871,18.06083 h -5.04938 -5.04939 l -0.17585,-6.27376 c -0.66064,-23.56954 -0.79944,-26.17149 -1.54976,-29.05216 -0.9428,-3.61965 -3.18814,-5.01562 -8.11008,-5.04216 -4.20439,-0.0227 -7.91959,1.31383 -10.40939,3.74465 -1.18415,1.1561 -1.3545,1.46573 -1.74075,3.16392 -0.48832,2.147 -0.88273,13.38431 -0.89634,25.53809 -0.007,6.64514 -0.04,7.16149 -0.45161,7.16815 -0.24398,0.004 -2.49684,0.17261 -5.00634,0.37479 -2.50951,0.20219 -4.70532,0.37006 -4.8796,0.37305 -0.25141,0.004 -0.31685,-5.23482 -0.31685,-25.36539 z"
       id="path2736"
       transform="matrix(7.4999998,0,0,-7.4999998,0,1640)" />
    <path
       style="fill:#000000;stroke-width:4.79028"
       d="m 326.15627,168.4223 c -2.94781,-0.51887 -6.05001,-1.52645 -8.36502,-2.71694 -1.53483,-0.78927 -2.59007,-1.60194 -4.34007,-3.34242 -1.97188,-1.96114 -2.48532,-2.65549 -3.48854,-4.71773 -3.21573,-6.6103 -3.879,-16.90984 -1.54177,-23.9413 2.2967,-6.90954 7.47783,-11.86422 14.17107,-13.55173 5.14303,-1.29666 13.24096,-1.05905 18.77345,0.55085 6.7893,1.97562 11.53739,7.74776 13.33778,16.21443 0.72261,3.3982 0.7815,9.53116 0.12591,13.1128 -1.778,9.71367 -8.26544,16.27434 -18.06624,18.27017 -3.04253,0.61958 -7.48872,0.67066 -10.60657,0.12187 z m 8.48026,-9.09528 c 2.13966,-0.5721 4.42489,-1.80912 5.46123,-2.95622 1.34727,-1.49127 2.60908,-4.33264 3.20866,-7.22533 0.42962,-2.07273 0.49656,-3.10806 0.39114,-6.04951 -0.20551,-5.73429 -1.66869,-9.77103 -4.48765,-12.38089 -1.92362,-1.78093 -3.70889,-2.46836 -6.84343,-2.63509 -2.77247,-0.14747 -4.69959,0.24248 -7.02762,1.42202 -2.74832,1.39248 -4.53046,3.6411 -5.85185,7.38357 -0.62967,1.78338 -0.67158,2.18377 -0.67654,6.46388 -0.005,3.99336 0.0661,4.80895 0.56663,6.53581 1.18488,4.08774 3.55618,7.59276 5.99804,8.86569 2.32303,1.21099 6.02549,1.44128 9.26139,0.57607 z"
       id="path2738"
       transform="matrix(7.4999998,0,0,-7.4999998,0,1640)" />
    <path
       style="fill:#000000;stroke-width:4.79028"
       d="m 437.30963,168.80784 c -4.43125,-0.38587 -8.27974,-0.94426 -9.79077,-1.42057 -2.77675,-0.87529 -3.49448,-2.25928 -3.3494,-6.45857 0.1221,-3.53423 0.0937,-3.51563 4.06121,-2.6551 4.14889,0.89986 7.76388,1.39365 11.61381,1.5864 7.41206,0.37108 10.67185,-1.34619 10.63208,-5.60102 -0.0347,-3.71276 -0.79512,-4.21603 -7.47428,-4.94671 -11.02695,-1.20632 -13.62737,-1.67534 -16.02511,-2.89037 -1.83142,-0.92805 -2.66717,-1.72354 -3.54903,-3.37809 -1.76645,-3.3142 -2.45613,-7.9573 -1.74308,-11.73492 1.19798,-6.34667 5.56464,-10.56696 11.94903,-11.54847 3.58283,-0.5508 12.94455,-0.76411 16.99687,-0.38727 6.9159,0.64314 8.18214,1.29241 8.70441,4.46325 0.40579,2.46361 0.47369,5.86025 0.12415,6.20979 -0.2091,0.20911 -0.74163,0.14772 -2.02788,-0.23374 -2.18473,-0.64793 -6.11865,-1.18566 -11.45017,-1.56513 -7.01898,-0.49958 -11.21771,0.24234 -13.08814,2.31269 -0.83125,0.92009 -0.9069,1.13272 -0.9069,2.54907 0,1.92297 0.53461,3.10273 1.83182,4.04243 1.39495,1.0105 3.70177,1.44532 8.68783,1.63758 14.82556,0.57169 19.31882,3.84853 19.809,14.44629 0.29192,6.3113 -1.23773,9.66939 -5.58848,12.26856 -4.32734,2.58517 -12.22956,3.92978 -19.41697,3.3039 z"
       id="path2740"
       transform="matrix(7.4999998,0,0,-7.4999998,0,1640)" />
    <path
       style="fill:#000000;stroke-width:4.79028"
       d="m 485.85209,169.05615 c -6.64093,-0.53287 -11.74342,-3.16548 -12.51299,-6.45604 -0.84208,-3.60059 -1.28268,-16.7399 -1.29468,-38.60907 l -0.007,-13.27476 2.47148,0.17782 c 5.34046,0.38424 6.02794,0.86513 6.53127,4.56861 0.2351,1.72991 0.71656,2.55501 1.69931,2.9122 0.49285,0.17914 3.08792,0.36049 6.37155,0.44528 l 5.54002,0.14304 -0.0924,3.78866 c -0.0923,3.78546 -0.093,3.78918 -0.8013,4.39844 -0.69212,0.59533 -0.81723,0.60976 -5.28451,0.60976 h -4.5756 l 0.13296,12.48416 c 0.15249,14.31741 0.36216,16.60698 1.61334,17.61757 0.91058,0.73548 2.62012,1.25013 4.89835,1.47462 2.1041,0.20733 2.91559,0.72379 3.2799,2.08744 0.24583,0.92017 0.77522,5.84164 0.77563,7.21074 l 2.1e-4,0.69708 -3.10519,-0.0361 c -1.70786,-0.0198 -4.24588,-0.12761 -5.64005,-0.23947 z"
       id="path2742"
       transform="matrix(7.4999998,0,0,-7.4999998,0,1640)" />
    <path
       style="fill:#000000;stroke-width:4.79028"
       d="M 242.8863,68.064275 V 48.165669 h 2.29804 c 1.26391,0 2.51605,0.116683 2.78253,0.259295 0.98511,0.527216 1.10281,1.214409 1.2451,7.269431 0.10179,4.331338 0.22496,5.967767 0.46742,6.210076 0.26988,0.269705 0.56686,0.195748 1.64766,-0.410321 4.12586,-2.313612 4.72118,-2.541671 6.61138,-2.532757 2.31312,0.01091 4.14224,0.848707 6.33859,2.903291 3.27112,3.059964 3.54084,4.222893 3.55441,15.325067 0.01,7.829245 -0.0218,8.429962 -0.49027,9.378961 -0.44084,0.893115 -0.64339,1.041551 -1.69969,1.245632 -1.64746,0.318299 -3.16476,-0.141794 -3.52575,-1.069123 -0.42846,-1.100634 -0.67989,-3.60421 -0.97237,-9.682213 -0.29555,-6.1417 -0.67708,-8.92102 -1.46546,-10.675267 -1.05911,-2.356662 -2.48572,-2.90312 -5.30318,-2.031367 -2.6717,0.826649 -3.66354,1.491184 -4.37806,2.93329 -0.61155,1.234299 -0.62341,1.385887 -0.78346,10.012675 -0.11813,6.367615 -0.25228,8.946299 -0.4913,9.443868 -0.43331,0.902069 -1.42769,1.216675 -3.84553,1.216675 h -1.99006 z"
       id="path2744"
       transform="matrix(7.4999998,0,0,-7.4999998,0,1640)" />
    <path
       style="fill:#000000;stroke-width:4.79028"
       d="m 222.92564,87.43204 c -1.05068,-0.310958 -1.48221,-0.99635 -1.82031,-2.891212 -0.31202,-1.748737 -0.67654,-10.385255 -0.92729,-21.970201 l -0.17376,-8.028503 -4.64879,-0.08303 c -5.88497,-0.10511 -5.76079,-0.02572 -5.88965,-3.765103 l -0.0871,-2.528321 h 14.59916 14.59917 l -0.004,2.217998 c -0.007,3.91985 -0.29311,4.084168 -7.15722,4.104831 l -4.75286,0.01431 -0.0182,10.456274 c -0.01,5.750951 -0.10226,12.851711 -0.20499,15.779468 -0.21629,6.164613 -0.3871,6.816119 -1.80648,6.890515 -0.48697,0.02552 -1.25553,-0.06314 -1.70791,-0.197022 z"
       id="path2746"
       transform="matrix(7.4999998,0,0,-7.4999998,0,1640)" />
    <path
       style="fill:#000000;stroke-width:4.79028"
       d="m 287.11951,87.094108 c -5.83771,-0.997495 -9.69991,-3.200978 -11.03002,-6.292901 -1.58137,-3.676006 -1.68484,-10.059941 -0.23891,-14.741298 0.61262,-1.983459 2.50798,-4.209987 4.51253,-5.301 1.82449,-0.993014 4.82327,-1.693366 7.25066,-1.693366 7.74998,0 12.30675,5.23839 12.30675,14.147632 v 2.508676 l -7.92142,0.145082 c -8.69695,0.159286 -9.91197,0.332367 -10.5706,1.505795 -0.33696,0.600328 -0.33101,0.764588 0.0572,1.578609 1.25308,2.62774 6.50845,3.932695 13.49189,3.350158 2.98604,-0.249085 3.45382,-0.05795 3.49595,1.428465 0.0623,2.197302 -2.23508,3.447903 -6.63319,3.610871 -1.59966,0.05927 -3.5162,-0.04089 -4.72081,-0.246723 z m 4.98593,-16.93352 c 1.80354,-0.786702 1.86695,-2.182237 0.18591,-4.091993 -3.01119,-3.420891 -9.04694,-2.624079 -10.73507,1.417196 -1.08603,2.599878 0.18834,3.260848 6.0702,3.148387 2.57442,-0.04922 3.80419,-0.179254 4.47896,-0.47359 z"
       id="path2748"
       transform="matrix(7.4999998,0,0,-7.4999998,0,1640)" />
    <path
       style="fill:#000000;stroke-width:4.79028"
       d="m 572.87985,168.70726 c -0.6023,-0.34271 -1.72992,-2.59214 -1.72992,-3.45093 0,-0.57069 -1.05097,-2.26176 -1.40565,-2.26176 -0.20977,0 -1.18842,0.40641 -2.17479,0.90313 -6.82811,3.43859 -14.11908,5.03118 -19.14518,4.18196 -5.92194,-1.00059 -9.72393,-5.48784 -11.07394,-13.06988 -0.83382,-4.68297 -0.98318,-7.60938 -1.1094,-21.73638 l -0.12852,-14.3853 h 5.70666 5.70667 l 0.15238,2.85172 c 0.0838,1.56844 0.27084,7.47148 0.41563,13.11787 0.26741,10.42887 0.56057,15.65692 1.01263,18.05879 0.7795,4.14161 3.23037,6.02232 7.84807,6.02232 3.36893,0 6.24613,-0.9695 10.71002,-3.60884 l 1.71103,-1.01167 V 136.6032 118.8881 h 5.97021 5.97022 l -0.1378,5.00634 c -0.0758,2.75349 -0.19707,11.33714 -0.26952,19.07478 -0.0725,7.73764 -0.20471,16.65108 -0.29391,19.80764 l -0.16219,5.7392 -1.16588,0.14751 c -3.24626,0.41073 -5.732,0.42768 -6.40682,0.0437 z"
       id="path2750"
       transform="matrix(7.4999998,0,0,-7.4999998,0,1640)" />
    <path
       style="fill:#000000;stroke-width:4.79028"
       d="m 508.91926,168.93802 c -2.23067,-0.17568 -4.35643,-0.33008 -4.72391,-0.3431 l -0.66815,-0.0237 -0.17183,-7.16097 c -0.18794,-7.83239 -0.6215,-42.61009 -0.53248,-42.71243 0.0304,-0.0349 1.79561,0.10322 3.92271,0.307 5.40469,0.51778 5.82575,0.81146 6.31935,4.40755 0.14062,1.02448 0.3151,1.92213 0.38775,1.99477 0.0726,0.0727 1.24963,-0.55434 2.61554,-1.39331 4.36308,-2.67988 9.14438,-4.87227 10.62577,-4.87227 0.95488,0 1.19095,0.80799 0.99263,3.39744 -0.36716,4.79405 -0.93729,5.91608 -3.36468,6.62175 -1.96852,0.57226 -4.01883,1.64359 -7.09377,3.70666 l -2.60551,1.7481 v 17.35808 17.35808 l -0.82382,-0.0371 c -0.45311,-0.0204 -2.64893,-0.18087 -4.8796,-0.35656 z"
       id="path2752"
       transform="matrix(7.4999998,0,0,-7.4999998,0,1640)" />
    <path
       style="fill:#000000;stroke-width:4.79028"
       d="m 611.45412,168.04469 c -4.46427,-0.44297 -8.97149,-1.8112 -11.63281,-3.53129 -4.93958,-3.19261 -7.68118,-7.91838 -9.04276,-15.58727 -0.5344,-3.00998 -0.61519,-9.11491 -0.15155,-11.4526 2.11327,-10.65523 9.56517,-16.94983 21.74775,-18.37028 2.8249,-0.32938 7.56165,-0.0563 12.03103,0.69367 2.77233,0.46518 4.02925,0.99372 4.46972,1.87952 0.38633,0.77691 0.45294,7.60457 0.0742,7.60457 -0.13662,0 -2.33244,-0.24054 -4.87959,-0.53453 -7.23461,-0.83501 -11.15254,-0.44674 -15.01888,1.48838 -4.50285,2.25371 -7.25376,7.25891 -7.25361,13.19772 1.3e-4,5.02452 1.87814,9.02657 6.16712,13.14218 2.50518,2.40391 2.79238,2.45708 12.95796,2.39874 l 8.3279,-0.0478 -0.10555,3.11174 c -0.0645,1.90079 -0.2396,3.38544 -0.45,3.81506 -0.44751,0.91375 -1.56438,1.57514 -3.29922,1.95373 -1.80064,0.39296 -10.82848,0.54736 -13.9417,0.23845 z"
       id="path2754"
       transform="matrix(7.4999998,0,0,-7.4999998,0,1640)" />
    <path
       style="fill:#000000;stroke-width:4.79028"
       d="m 652.93098,169.04399 c -6.96875,-0.4992 -9.7619,-1.39256 -11.94474,-3.82041 -1.61477,-1.79601 -2.35144,-3.13851 -2.84169,-5.17868 -0.36927,-1.53675 -0.42927,-4.51737 -0.51402,-25.53805 l -0.096,-23.79823 2.10553,0.17002 c 5.08262,0.41044 5.91704,0.89716 6.99531,4.08044 0.64923,1.91667 0.74945,2.0589 1.82758,2.59345 0.88671,0.43965 2.07181,0.65427 5.32264,0.96393 4.73722,0.45125 5.53783,0.74204 5.90093,2.1433 0.12444,0.48023 0.18807,2.04232 0.1414,3.4713 -0.11939,3.65507 0.15834,3.4835 -5.79673,3.58103 l -4.80778,0.0787 0.003,9.55371 c 0.002,9.30046 0.26057,15.48435 0.76299,18.2782 0.4442,2.47011 1.45287,3.06315 5.66755,3.33218 4.24179,0.27076 4.06372,0.0222 4.17049,5.82058 l 0.0839,4.55621 -1.98504,-0.0361 c -1.09177,-0.0198 -3.33946,-0.13307 -4.99487,-0.25166 z"
       id="path2756"
       transform="matrix(7.4999998,0,0,-7.4999998,0,1640)" />
  </g>
</svg>
